<?xml version="1.0" standalone="no"?>
<!DOCTYPE svg PUBLIC "-//W3C//DTD SVG 20010904//EN"
 "http://www.w3.org/TR/2001/REC-SVG-20010904/DTD/svg10.dtd">
<svg version="1.0" xmlns="http://www.w3.org/2000/svg"
 width="512.000000pt" height="512.000000pt" viewBox="0 0 512.000000 512.000000"
 preserveAspectRatio="xMidYMid meet">
<metadata>
Created by potrace 1.11, written by Peter Selinger 2001-2013
</metadata>
<g transform="translate(0.000000,512.000000) scale(0.100000,-0.100000)"
fill="#000000" stroke="none">
<path d="M2325 4659 c-108 -14 -143 -21 -210 -44 -38 -13 -83 -30 -100 -39
l-30 -16 35 -1 c19 0 28 -3 20 -6 -60 -24 -304 -222 -274 -223 6 0 17 7 24 15
7 9 15 13 18 11 2 -3 -18 -31 -46 -63 -56 -65 -115 -162 -138 -225 -26 -73
-33 -165 -33 -408 0 -204 4 -315 14 -373 4 -21 8 -68 9 -103 3 -64 3 -64 -24
-64 -15 0 -33 -7 -40 -15 -15 -18 -15 -80 -1 -118 6 -15 10 -31 9 -35 -1 -4 1
-14 5 -22 16 -42 27 -91 31 -148 3 -34 12 -75 19 -90 7 -15 12 -45 11 -67 -1
-22 -3 -64 -4 -93 -3 -63 21 -96 75 -105 42 -7 95 -45 95 -68 0 -10 20 -57 45
-104 27 -52 45 -102 47 -126 1 -22 4 -42 8 -44 6 -4 4 -275 -4 -330 -2 -21
-19 -85 -37 -141 -27 -88 -35 -103 -55 -107 -19 -3 -29 3 -44 28 -37 60 -160
90 -218 54 -12 -8 -22 -17 -22 -21 0 -19 -48 -48 -89 -55 -58 -9 -52 -8 -81
-17 -47 -16 -82 -49 -105 -99 -20 -42 -32 -54 -82 -79 -132 -68 -261 -166
-291 -222 -17 -33 -19 -40 -26 -98 -7 -53 -32 -95 -67 -113 -17 -9 -65 -18
-107 -21 -128 -8 -170 -25 -322 -128 -123 -83 -340 -261 -340 -279 0 -4 1150
-7 2555 -7 1405 0 2555 4 2555 8 0 24 -251 242 -278 242 -4 0 -16 17 -27 37
-33 62 -105 126 -165 148 -74 26 -115 32 -247 34 -46 1 -51 3 -46 21 12 44
-28 113 -112 196 -116 114 -121 124 -124 236 -1 37 -46 86 -90 98 -20 5 -59
24 -85 41 -48 32 -77 37 -176 29 -19 -1 -69 1 -110 5 -90 9 -156 -5 -165 -35
-4 -11 -10 -18 -15 -15 -7 4 -46 121 -64 195 -25 100 -27 358 -2 466 2 12 23
60 45 107 23 47 41 89 41 94 0 4 5 24 10 44 8 30 18 40 50 53 50 20 60 40 66
134 4 85 5 92 21 142 6 19 14 53 18 75 3 22 17 75 31 118 55 176 31 257 -58
201 -47 -30 -52 -30 -44 -1 7 25 42 256 50 332 3 28 8 156 11 285 4 228 3 237
-20 303 -40 116 -153 264 -275 361 -31 24 -32 27 -10 20 14 -3 39 -13 55 -21
l30 -14 -25 20 c-36 30 -155 110 -174 117 -29 11 -17 23 14 14 18 -5 30 -5 30
1 0 5 -8 9 -18 9 -10 0 -22 4 -27 9 -16 14 -147 61 -237 84 -74 19 -110 21
-348 22 -146 0 -287 -3 -315 -6z"/>
</g>
</svg>
